
<svg xmlns="http://www.w3.org/2000/svg" viewBox="0 0 715.3 715.3">
  <g id="color-wheel" style="transform-origin: center center; transform: rotate(0deg);">
    <path d="M80.88,410.84a281.67,281.67,0,0,0,61.94,128.81l2,2.29-.54.47.08.08.13-.11c102.11,117.54,280.17,130,397.71,27.93a282.1,282.1,0,0,0,80-116.22A37.74,37.74,0,0,1,626,443.16c46.32-145.47-31.78-302.06-176.89-352A281.87,281.87,0,0,0,310.2,79.76a40.36,40.36,0,0,1-5.38,1.46,38.35,38.35,0,0,1-6.26.66C148.78,113.76,51.6,259.9,80.88,410.84Z" style="fill:none"></path>
    <path d="M298.56,81.88A38.12,38.12,0,0,1,289.24,6.6V6.53l-3.76.75A356.79,356.79,0,0,0,127.71,83.5C-23.47,210.27-43.25,435.6,83.5,586.78a38.13,38.13,0,1,0,60.86-44.29l-.08-.08.54-.47-2-2.29A281.67,281.67,0,0,1,80.88,410.84C51.6,259.9,148.78,113.76,298.56,81.88Z" style="fill:#00aeef"></path>
    <path d="M666.45,423.54a38,38,0,0,0-44.25,30.55,282.1,282.1,0,0,1-80,116.22c-117.54,102.07-295.6,89.61-397.71-27.93l-.13.11a38.14,38.14,0,0,1-50.43,57.07A357.77,357.77,0,0,0,241,695.76c186.67,64.2,390.08-35,454.46-221.58l.12-.34-.14,0a39.41,39.41,0,0,0,1.43-5.32,5.58,5.58,0,0,0,.13-.69A38,38,0,0,0,666.45,423.54Z" style="fill:#1d1714"></path>
    <path d="M708.46,289.79C670.92,95.84,483.29-31,289.29,6.59h-.05a38.12,38.12,0,0,0,15.58,74.62,40.36,40.36,0,0,0,5.38-1.46A281.87,281.87,0,0,1,449.09,91.15C594.2,141.1,672.3,297.69,626,443.16a38,38,0,0,1,71,24.64,5.58,5.58,0,0,1-.13.69,39.41,39.41,0,0,1-1.43,5.32l.14,0-.12.34h0l1.24-3.6A357.72,357.72,0,0,0,708.46,289.79Z" style="fill:#00e1ff"></path>
  </g>
</svg>
